<?xml version="1.0" encoding="iso-8859-1"?>
<!-- Uploaded to: SVG Repo, www.svgrepo.com, Generator: SVG Repo Mixer Tools -->
<svg height="800px" width="800px" version="1.1" id="Layer_1" xmlns="http://www.w3.org/2000/svg" xmlns:xlink="http://www.w3.org/1999/xlink" 
	 viewBox="0 0 512 512" xml:space="preserve">
<path style="fill:#6E6057;" d="M83.478,256c-9.217,0-16.696-7.473-16.696-16.696v-66.783c0-9.206-7.49-16.696-16.696-16.696
	c-9.217,0-16.696-7.473-16.696-16.696s7.479-16.696,16.696-16.696c27.619,0,50.087,22.468,50.087,50.087v66.783
	C100.174,248.527,92.695,256,83.478,256z"/>
<path style="fill:#B1532F;" d="M511.777,236.522l-0.111-0.557l-2.226-13.357L483.061,64.111
	c-4.118-24.264-24.822-41.85-49.419-41.85H245.315c-24.597,0-45.301,17.586-49.419,41.85l-26.379,158.497l-2.337,13.913
	c-0.78,4.897,0.557,9.795,3.784,13.579c3.117,3.784,7.792,5.899,12.689,5.899h311.652c4.896,0,9.572-2.115,12.689-5.899
	c2.671-3.117,4.007-6.79,4.007-10.797v-0.111C512,238.303,511.889,237.412,511.777,236.522z"/>
<path style="fill:#A64E2D;" d="M511.666,235.965l-2.226-13.357L483.061,64.111c-4.118-24.264-24.822-41.85-49.419-41.85H256V256
	h239.304c4.896,0,9.572-2.115,12.689-5.899c2.671-3.117,4.007-6.79,4.007-10.797v-0.111c0-0.89-0.111-1.781-0.223-2.671
	L511.666,235.965z"/>
<path style="fill:#E2E7EC;" d="M203.353,222.609l25.489-153.043c1.335-8.014,8.237-13.913,16.473-13.913h188.327
	c8.237,0,15.139,5.899,16.473,13.913l25.489,153.043H203.353z"/>
<path style="fill:#CCD5E0;" d="M433.642,55.652H256v166.957h219.603L450.115,69.565C448.78,61.551,441.878,55.652,433.642,55.652z"
	/>
<path style="fill:#765B43;" d="M395.13,256c-9.217,0-16.696-7.473-16.696-16.696V105.739c0-9.223,7.479-16.696,16.696-16.696
	c9.217,0,16.696,7.473,16.696,16.696v133.565C411.826,248.527,404.348,256,395.13,256z"/>
<path style="fill:#8C6D50;" d="M323.456,177.414l-33.391-33.391c-6.521-6.521-17.087-6.521-23.609,0
	c-6.521,6.516-6.521,17.092,0,23.609l4.892,4.892l-54.979,54.979c-6.521,6.516-6.521,17.092,0,23.609
	c3.261,3.261,7.533,4.892,11.804,4.892s8.544-1.631,11.804-4.892l54.98-54.98l4.892,4.892c3.261,3.261,7.533,4.892,11.804,4.892
	s8.544-1.631,11.804-4.892C329.978,194.505,329.978,183.929,323.456,177.414z"/>
<path style="fill:#765B43;" d="M290.065,144.022c-6.521-6.521-17.087-6.521-23.609,0c-6.521,6.516-6.521,17.092,0,23.609
	l4.892,4.892L256,187.869v47.218l38.957-38.957l4.892,4.892c3.261,3.261,7.533,4.892,11.804,4.892s8.544-1.631,11.804-4.892
	c6.521-6.516,6.521-17.092,0-23.609L290.065,144.022z"/>
<path style="fill:#BF6745;" d="M512,239.193v150.372c0,18.477-14.916,33.391-33.391,33.391H44.522
	C19.923,422.957,0,403.033,0,378.435V267.13c0-24.598,19.923-44.522,44.522-44.522H509.44l2.226,13.357l0.111,0.557
	C511.889,237.412,512,238.303,512,239.193z"/>
<path style="fill:#B1532F;" d="M511.666,235.965l-2.226-13.357H256v200.348h222.609c18.475,0,33.391-14.915,33.391-33.391V239.193
	c0-0.89-0.111-1.781-0.223-2.671L511.666,235.965z"/>
<path style="fill:#6E6057;" d="M100.174,489.739c-36.826,0-66.783-29.956-66.783-66.783s29.956-66.783,66.783-66.783
	s66.783,29.956,66.783,66.783S137,489.739,100.174,489.739z"/>
<path style="fill:#615349;" d="M166.957,422.957c0-36.826-29.956-66.783-66.783-66.783v133.565
	C137,489.739,166.957,459.783,166.957,422.957z"/>
<path style="fill:#DBDFE3;" d="M100.174,389.565c-18.413,0-33.391,14.978-33.391,33.391c0,18.413,14.978,33.391,33.391,33.391
	s33.391-14.978,33.391-33.391C133.565,404.543,118.587,389.565,100.174,389.565z"/>
<path style="fill:#CAD1D7;" d="M133.565,422.957c0-18.413-14.978-33.391-33.391-33.391v66.783
	C118.587,456.348,133.565,441.37,133.565,422.957z"/>
<path style="fill:#6E6057;" d="M411.826,489.739c-55.239,0-100.174-44.94-100.174-100.174s44.935-100.174,100.174-100.174
	S512,334.332,512,389.565S467.065,489.739,411.826,489.739z"/>
<path style="fill:#DBDFE3;" d="M411.826,322.783c-36.826,0-66.783,29.956-66.783,66.783s29.956,66.783,66.783,66.783
	s66.783-29.956,66.783-66.783S448.652,322.783,411.826,322.783z"/>
<path style="fill:#615349;" d="M512,389.565c0-55.234-44.935-100.174-100.174-100.174v200.348
	C467.065,489.739,512,444.799,512,389.565z"/>
<path style="fill:#CAD1D7;" d="M478.609,389.565c0-36.826-29.956-66.783-66.783-66.783v133.565
	C448.652,456.348,478.609,426.391,478.609,389.565z"/>
<g>
	<path style="fill:#6E6057;" d="M83.478,289.391H0v33.391h83.478c9.217,0,16.696-7.473,16.696-16.696S92.695,289.391,83.478,289.391
		z"/>
	<path style="fill:#6E6057;" d="M261.565,322.783h-77.913c-9.217,0-16.696-7.473-16.696-16.696s7.479-16.696,16.696-16.696h77.913
		c9.217,0,16.696,7.473,16.696,16.696S270.782,322.783,261.565,322.783z"/>
</g>
<path style="fill:#615349;" d="M261.565,289.391H256v33.391h5.565c9.217,0,16.696-7.473,16.696-16.696
	S270.782,289.391,261.565,289.391z"/>
</svg>